  0
SECTION
  2
HEADER
  9
$ACADVER
  1
AC1014
  9
$HANDSEED
  5
FFFF
  9
$MEASUREMENT
 70
     1
  0
ENDSEC
  0
SECTION
  2
TABLES
  0
TABLE
  2
VPORT
  5
8
330
0
100
AcDbSymbolTable
 70
     4
  0
VPORT
  5
2E
330
8
100
AcDbSymbolTableRecord
100
AcDbViewportTableRecord
  2
*ACTIVE
 70
     0
 10
0.0
 20
0.0
 11
1.0
 21
1.0
 12
210.0
 22
148.5
 13
0.0
 23
0.0
 14
10.0
 24
10.0
 15
10.0
 25
10.0
 16
0.0
 26
0.0
 36
1.0
 17
0.0
 27
0.0
 37
0.0
 40
341.0
 41
1.24
 42
50.0
 43
0.0
 44
0.0
 50
0.0
 51
0.0
 71
     0
 72
   100
 73
     1
 74
     3
 75
     0
 76
     0
 77
     0
 78
     0
  0
ENDTAB
  0
TABLE
  2
LTYPE
  5
5
330
0
100
AcDbSymbolTable
 70
     1
  0
LTYPE
  5
14
330
5
100
AcDbSymbolTableRecord
100
AcDbLinetypeTableRecord
  2
BYBLOCK
 70
     0
  3

 72
    65
 73
     0
 40
0.0
  0
LTYPE
  5
15
330
5
100
AcDbSymbolTableRecord
100
AcDbLinetypeTableRecord
  2
BYLAYER
 70
     0
  3

 72
    65
 73
     0
 40
0.0
  0
LTYPE
  5
16
330
5
100
AcDbSymbolTableRecord
100
AcDbLinetypeTableRecord
  2
CONTINUOUS
 70
     0
  3
Solid line
 72
    65
 73
     0
 40
0.0
  0
ENDTAB
  0
TABLE
  2
LAYER
  5
2
100
AcDbSymbolTable
 70
2
  0
LAYER
  5
50
100
AcDbSymbolTableRecord
100
AcDbLayerTableRecord
  2
0
 70
0
  6
CONTINUOUS
  0
LAYER
  5
51
100
AcDbSymbolTableRecord
100
AcDbLayerTableRecord
  2
Capa_1
 70
0
  6
CONTINUOUS
  0
ENDTAB
  0
TABLE
  2
STYLE
  5
3
330
0
100
AcDbSymbolTable
 70
     1
  0
STYLE
  5
11
330
3
100
AcDbSymbolTableRecord
100
AcDbTextStyleTableRecord
  2
STANDARD
 70
     0
 40
0.0
 41
1.0
 50
0.0
 71
     0
 42
2.5
  3
txt
  4

  0
ENDTAB
  0
TABLE
  2
VIEW
  5
6
330
0
100
AcDbSymbolTable
 70
     0
  0
ENDTAB
  0
TABLE
  2
UCS
  5
7
330
0
100
AcDbSymbolTable
 70
     0
  0
ENDTAB
  0
TABLE
  2
APPID
  5
9
330
0
100
AcDbSymbolTable
 70
     2
  0
APPID
  5
12
330
9
100
AcDbSymbolTableRecord
100
AcDbRegAppTableRecord
  2
ACAD
 70
     0
  0
ENDTAB
  0
TABLE
  2
DIMSTYLE
  5
A
330
0
100
AcDbSymbolTable
 70
     1
  0
DIMSTYLE
105
27
330
A
100
AcDbSymbolTableRecord
100
AcDbDimStyleTableRecord
  2
ISO-25
 70
     0
  3

  4

  5

  6

  7

 40
1.0
 41
2.5
 42
0.625
 43
3.75
 44
1.25
 45
0.0
 46
0.0
 47
0.0
 48
0.0
140
2.5
141
2.5
142
0.0
143
0.03937007874016
144
1.0
145
0.0
146
1.0
147
0.625
 71
     0
 72
     0
 73
     0
 74
     0
 75
     0
 76
     0
 77
     1
 78
     8
170
     0
171
     3
172
     1
173
     0
174
     0
175
     0
176
     0
177
     0
178
     0
270
     2
271
     2
272
     2
273
     2
274
     3
340
11
275
     0
280
     0
281
     0
282
     0
283
     0
284
     8
285
     0
286
     0
287
     3
288
     0
  0
ENDTAB
  0
TABLE
  2
BLOCK_RECORD
  5
1
330
0
100
AcDbSymbolTable
 70
     1
  0
BLOCK_RECORD
  5
1F
330
1
100
AcDbSymbolTableRecord
100
AcDbBlockTableRecord
  2
*MODEL_SPACE
  0
BLOCK_RECORD
  5
1B
330
1
100
AcDbSymbolTableRecord
100
AcDbBlockTableRecord
  2
*PAPER_SPACE
  0
ENDTAB
  0
ENDSEC
  0
SECTION
  2
BLOCKS
  0
BLOCK
  5
20
330
1F
100
AcDbEntity
  8
0
100
AcDbBlockBegin
  2
*MODEL_SPACE
 70
     0
 10
0.0
 20
0.0
 30
0.0
  3
*MODEL_SPACE
  1

  0
ENDBLK
  5
21
330
1F
100
AcDbEntity
  8
0
100
AcDbBlockEnd
  0
BLOCK
  5
1C
330
1B
100
AcDbEntity
 67
     1
  8
0
100
AcDbBlockBegin
  2
*PAPER_SPACE
  1

  0
ENDBLK
  5
1D
330
1B
100
AcDbEntity
 67
     1
  8
0
100
AcDbBlockEnd
  0
ENDSEC
  0
SECTION
  2
ENTITIES
  0
LWPOLYLINE
  5
100
100
AcDbEntity
  8
Capa_1
 62
7
100
AcDbPolyline
 90
2
 70
0
 10
61.480388
 20
232.432341
 30
0.0
 10
72.592888
 20
232.432341
 30
0.0
  0
LWPOLYLINE
  5
101
100
AcDbEntity
  8
Capa_1
 62
7
100
AcDbPolyline
 90
14
 70
0
 10
61.480388
 20
229.927618
 30
0.0
 10
61.162888
 20
229.962896
 30
0.0
 10
60.880666
 20
230.068730
 30
0.0
 10
60.633722
 20
230.245118
 30
0.0
 10
60.457333
 20
230.456785
 30
0.0
 10
60.316222
 20
230.739007
 30
0.0
 10
60.245666
 20
231.021230
 30
0.0
 10
60.245666
 20
231.303452
 30
0.0
 10
60.316222
 20
231.620952
 30
0.0
 10
60.457333
 20
231.867896
 30
0.0
 10
60.633722
 20
232.114841
 30
0.0
 10
60.880666
 20
232.291230
 30
0.0
 10
61.162888
 20
232.397063
 30
0.0
 10
61.480388
 20
232.432341
 30
0.0
  0
LWPOLYLINE
  5
102
100
AcDbEntity
  8
Capa_1
 62
7
100
AcDbPolyline
 90
2
 70
0
 10
72.592888
 20
229.927618
 30
0.0
 10
61.480388
 20
229.927618
 30
0.0
  0
LWPOLYLINE
  5
103
100
AcDbEntity
  8
Capa_1
 62
7
100
AcDbPolyline
 90
14
 70
0
 10
72.592888
 20
232.432341
 30
0.0
 10
72.910388
 20
232.397063
 30
0.0
 10
73.192611
 20
232.291230
 30
0.0
 10
73.439555
 20
232.114841
 30
0.0
 10
73.615944
 20
231.867896
 30
0.0
 10
73.757055
 20
231.620952
 30
0.0
 10
73.827611
 20
231.303452
 30
0.0
 10
73.827611
 20
231.021230
 30
0.0
 10
73.757055
 20
230.739007
 30
0.0
 10
73.615944
 20
230.456785
 30
0.0
 10
73.439555
 20
230.245118
 30
0.0
 10
73.192611
 20
230.068730
 30
0.0
 10
72.910388
 20
229.962896
 30
0.0
 10
72.592888
 20
229.927618
 30
0.0
  0
LWPOLYLINE
  5
104
100
AcDbEntity
  8
Capa_1
 62
7
100
AcDbPolyline
 90
43
 70
0
 10
88.009277
 20
235.960119
 30
0.0
 10
88.044555
 20
236.418730
 30
0.0
 10
88.150388
 20
236.877341
 30
0.0
 10
88.326777
 20
237.300674
 30
0.0
 10
88.538444
 20
237.724007
 30
0.0
 10
88.855944
 20
238.076785
 30
0.0
 10
89.173444
 20
238.394285
 30
0.0
 10
89.561500
 20
238.641230
 30
0.0
 10
89.984833
 20
238.852896
 30
0.0
 10
90.408166
 20
238.994007
 30
0.0
 10
90.866777
 20
239.064563
 30
0.0
 10
91.360666
 20
239.064563
 30
0.0
 10
91.819277
 20
238.994007
 30
0.0
 10
92.242611
 20
238.852896
 30
0.0
 10
92.665944
 20
238.641230
 30
0.0
 10
93.054000
 20
238.394285
 30
0.0
 10
93.371500
 20
238.076785
 30
0.0
 10
93.689000
 20
237.724007
 30
0.0
 10
93.900666
 20
237.300674
 30
0.0
 10
94.077055
 20
236.877341
 30
0.0
 10
94.182888
 20
236.418730
 30
0.0
 10
94.218166
 20
235.960119
 30
0.0
 10
94.182888
 20
235.501507
 30
0.0
 10
94.077055
 20
235.042896
 30
0.0
 10
93.900666
 20
234.619563
 30
0.0
 10
93.689000
 20
234.231507
 30
0.0
 10
93.371500
 20
233.843452
 30
0.0
 10
93.054000
 20
233.525952
 30
0.0
 10
92.665944
 20
233.279007
 30
0.0
 10
92.242611
 20
233.067341
 30
0.0
 10
91.819277
 20
232.961507
 30
0.0
 10
91.360666
 20
232.890952
 30
0.0
 10
90.866777
 20
232.890952
 30
0.0
 10
90.408166
 20
232.961507
 30
0.0
 10
89.984833
 20
233.067341
 30
0.0
 10
89.561500
 20
233.279007
 30
0.0
 10
89.173444
 20
233.525952
 30
0.0
 10
88.855944
 20
233.843452
 30
0.0
 10
88.538444
 20
234.231507
 30
0.0
 10
88.326777
 20
234.619563
 30
0.0
 10
88.150388
 20
235.042896
 30
0.0
 10
88.044555
 20
235.501507
 30
0.0
 10
88.009277
 20
235.960119
 30
0.0
  0
LWPOLYLINE
  5
105
100
AcDbEntity
  8
Capa_1
 62
7
100
AcDbPolyline
 90
52
 70
0
 10
75.344555
 20
236.030674
 30
0.0
 10
75.379833
 20
236.595119
 30
0.0
 10
75.485666
 20
237.159563
 30
0.0
 10
75.662055
 20
237.724007
 30
0.0
 10
75.909000
 20
238.217896
 30
0.0
 10
76.191222
 20
238.711785
 30
0.0
 10
76.544000
 20
239.170396
 30
0.0
 10
76.967333
 20
239.558452
 30
0.0
 10
77.425944
 20
239.911230
 30
0.0
 10
77.919833
 20
240.193452
 30
0.0
 10
78.449000
 20
240.405119
 30
0.0
 10
79.013444
 20
240.581507
 30
0.0
 10
79.577888
 20
240.652063
 30
0.0
 10
80.142333
 20
240.687341
 30
0.0
 10
80.706777
 20
240.616785
 30
0.0
 10
81.271222
 20
240.510952
 30
0.0
 10
81.800388
 20
240.334563
 30
0.0
 10
82.329555
 20
240.052341
 30
0.0
 10
82.788166
 20
239.734841
 30
0.0
 10
83.246777
 20
239.382063
 30
0.0
 10
83.634833
 20
238.958730
 30
0.0
 10
83.952333
 20
238.500119
 30
0.0
 10
84.234555
 20
237.970952
 30
0.0
 10
84.410944
 20
237.441785
 30
0.0
 10
84.552055
 20
236.877341
 30
0.0
 10
84.622611
 20
236.312896
 30
0.0
 10
84.622611
 20
235.748452
 30
0.0
 10
84.552055
 20
235.184007
 30
0.0
 10
84.410944
 20
234.619563
 30
0.0
 10
84.234555
 20
234.090396
 30
0.0
 10
83.952333
 20
233.596507
 30
0.0
 10
83.634833
 20
233.102618
 30
0.0
 10
83.246777
 20
232.679285
 30
0.0
 10
82.788166
 20
232.326507
 30
0.0
 10
82.329555
 20
232.009007
 30
0.0
 10
81.800388
 20
231.762063
 30
0.0
 10
81.271222
 20
231.550396
 30
0.0
 10
80.706777
 20
231.444563
 30
0.0
 10
80.142333
 20
231.374007
 30
0.0
 10
79.577888
 20
231.409285
 30
0.0
 10
79.013444
 20
231.479841
 30
0.0
 10
78.449000
 20
231.656230
 30
0.0
 10
77.919833
 20
231.867896
 30
0.0
 10
77.425944
 20
232.150118
 30
0.0
 10
76.967333
 20
232.502896
 30
0.0
 10
76.544000
 20
232.890952
 30
0.0
 10
76.191222
 20
233.349563
 30
0.0
 10
75.909000
 20
233.843452
 30
0.0
 10
75.662055
 20
234.337341
 30
0.0
 10
75.485666
 20
234.901785
 30
0.0
 10
75.379833
 20
235.466230
 30
0.0
 10
75.344555
 20
236.030674
 30
0.0
  0
LWPOLYLINE
  5
106
100
AcDbEntity
  8
Capa_1
 62
7
100
AcDbPolyline
 90
21
 70
0
 10
58.446500
 20
236.030674
 30
0.0
 10
58.481777
 20
236.277619
 30
0.0
 10
58.587611
 20
236.489285
 30
0.0
 10
58.764000
 20
236.630396
 30
0.0
 10
58.940388
 20
236.736230
 30
0.0
 10
59.187333
 20
236.771507
 30
0.0
 10
59.434277
 20
236.736230
 30
0.0
 10
59.645944
 20
236.630396
 30
0.0
 10
59.787055
 20
236.489285
 30
0.0
 10
59.892888
 20
236.277619
 30
0.0
 10
59.928166
 20
236.030674
 30
0.0
 10
59.892888
 20
235.819007
 30
0.0
 10
59.787055
 20
235.607341
 30
0.0
 10
59.645944
 20
235.430952
 30
0.0
 10
59.434277
 20
235.325119
 30
0.0
 10
59.187333
 20
235.289841
 30
0.0
 10
58.940388
 20
235.325119
 30
0.0
 10
58.764000
 20
235.430952
 30
0.0
 10
58.587611
 20
235.607341
 30
0.0
 10
58.481777
 20
235.819007
 30
0.0
 10
58.446500
 20
236.030674
 30
0.0
  0
LWPOLYLINE
  5
107
100
AcDbEntity
  8
Capa_1
 62
7
100
AcDbPolyline
 90
43
 70
0
 10
113.444555
 20
235.960119
 30
0.0
 10
113.479833
 20
236.418730
 30
0.0
 10
113.585666
 20
236.877341
 30
0.0
 10
113.762055
 20
237.300674
 30
0.0
 10
114.009000
 20
237.724007
 30
0.0
 10
114.291222
 20
238.076785
 30
0.0
 10
114.608722
 20
238.394285
 30
0.0
 10
114.996777
 20
238.641230
 30
0.0
 10
115.420111
 20
238.852896
 30
0.0
 10
115.878722
 20
238.994007
 30
0.0
 10
116.337333
 20
239.064563
 30
0.0
 10
116.795944
 20
239.064563
 30
0.0
 10
117.254555
 20
238.994007
 30
0.0
 10
117.677888
 20
238.852896
 30
0.0
 10
118.101222
 20
238.641230
 30
0.0
 10
118.489277
 20
238.394285
 30
0.0
 10
118.842055
 20
238.076785
 30
0.0
 10
119.124277
 20
237.724007
 30
0.0
 10
119.335944
 20
237.300674
 30
0.0
 10
119.512333
 20
236.877341
 30
0.0
 10
119.618166
 20
236.418730
 30
0.0
 10
119.653444
 20
235.960119
 30
0.0
 10
119.618166
 20
235.501507
 30
0.0
 10
119.512333
 20
235.042896
 30
0.0
 10
119.335944
 20
234.619563
 30
0.0
 10
119.124277
 20
234.231507
 30
0.0
 10
118.842055
 20
233.843452
 30
0.0
 10
118.489277
 20
233.525952
 30
0.0
 10
118.101222
 20
233.279007
 30
0.0
 10
117.677888
 20
233.067341
 30
0.0
 10
117.254555
 20
232.961507
 30
0.0
 10
116.795944
 20
232.890952
 30
0.0
 10
116.337333
 20
232.890952
 30
0.0
 10
115.878722
 20
232.961507
 30
0.0
 10
115.420111
 20
233.067341
 30
0.0
 10
114.996777
 20
233.279007
 30
0.0
 10
114.608722
 20
233.525952
 30
0.0
 10
114.291222
 20
233.843452
 30
0.0
 10
114.009000
 20
234.231507
 30
0.0
 10
113.762055
 20
234.619563
 30
0.0
 10
113.585666
 20
235.042896
 30
0.0
 10
113.479833
 20
235.501507
 30
0.0
 10
113.444555
 20
235.960119
 30
0.0
  0
LWPOLYLINE
  5
108
100
AcDbEntity
  8
Capa_1
 62
7
100
AcDbPolyline
 90
43
 70
0
 10
128.614000
 20
235.960119
 30
0.0
 10
128.649277
 20
236.418730
 30
0.0
 10
128.755111
 20
236.877341
 30
0.0
 10
128.931500
 20
237.300674
 30
0.0
 10
129.178444
 20
237.688730
 30
0.0
 10
129.460666
 20
238.041507
 30
0.0
 10
129.813444
 20
238.359007
 30
0.0
 10
130.166222
 20
238.641230
 30
0.0
 10
130.589555
 20
238.852896
 30
0.0
 10
131.048166
 20
238.958730
 30
0.0
 10
131.506777
 20
239.029285
 30
0.0
 10
131.965388
 20
239.029285
 30
0.0
 10
132.424000
 20
238.958730
 30
0.0
 10
132.847333
 20
238.852896
 30
0.0
 10
133.270666
 20
238.641230
 30
0.0
 10
133.658722
 20
238.359007
 30
0.0
 10
134.011500
 20
238.041507
 30
0.0
 10
134.293722
 20
237.688730
 30
0.0
 10
134.505388
 20
237.300674
 30
0.0
 10
134.681777
 20
236.877341
 30
0.0
 10
134.787611
 20
236.418730
 30
0.0
 10
134.822888
 20
235.960119
 30
0.0
 10
134.787611
 20
235.501507
 30
0.0
 10
134.681777
 20
235.042896
 30
0.0
 10
134.505388
 20
234.619563
 30
0.0
 10
134.293722
 20
234.196230
 30
0.0
 10
134.011500
 20
233.843452
 30
0.0
 10
133.658722
 20
233.525952
 30
0.0
 10
133.270666
 20
233.279007
 30
0.0
 10
132.847333
 20
233.067341
 30
0.0
 10
132.424000
 20
232.926230
 30
0.0
 10
131.965388
 20
232.855674
 30
0.0
 10
131.506777
 20
232.855674
 30
0.0
 10
131.048166
 20
232.926230
 30
0.0
 10
130.589555
 20
233.067341
 30
0.0
 10
130.166222
 20
233.279007
 30
0.0
 10
129.813444
 20
233.525952
 30
0.0
 10
129.460666
 20
233.843452
 30
0.0
 10
129.178444
 20
234.196230
 30
0.0
 10
128.931500
 20
234.619563
 30
0.0
 10
128.755111
 20
235.042896
 30
0.0
 10
128.649277
 20
235.501507
 30
0.0
 10
128.614000
 20
235.960119
 30
0.0
  0
LWPOLYLINE
  5
109
100
AcDbEntity
  8
Capa_1
 62
7
100
AcDbPolyline
 90
2
 70
0
 10
57.599833
 20
239.734841
 30
0.0
 10
56.541500
 20
238.676507
 30
0.0
  0
LWPOLYLINE
  5
10a
100
AcDbEntity
  8
Capa_1
 62
7
100
AcDbPolyline
 90
11
 70
0
 10
56.541500
 20
240.793174
 30
0.0
 10
56.717888
 20
240.934285
 30
0.0
 10
56.964833
 20
241.004841
 30
0.0
 10
57.176500
 20
241.004841
 30
0.0
 10
57.423444
 20
240.934285
 30
0.0
 10
57.599833
 20
240.793174
 30
0.0
 10
57.740944
 20
240.616785
 30
0.0
 10
57.811500
 20
240.405119
 30
0.0
 10
57.811500
 20
240.158174
 30
0.0
 10
57.740944
 20
239.946507
 30
0.0
 10
57.599833
 20
239.734841
 30
0.0
  0
LWPOLYLINE
  5
10b
100
AcDbEntity
  8
Capa_1
 62
7
100
AcDbPolyline
 90
2
 70
0
 10
55.483166
 20
239.734841
 30
0.0
 10
56.541500
 20
240.793174
 30
0.0
  0
LWPOLYLINE
  5
10c
100
AcDbEntity
  8
Capa_1
 62
7
100
AcDbPolyline
 90
11
 70
0
 10
56.541500
 20
238.676507
 30
0.0
 10
56.365111
 20
238.535396
 30
0.0
 10
56.118166
 20
238.464841
 30
0.0
 10
55.906500
 20
238.464841
 30
0.0
 10
55.659555
 20
238.535396
 30
0.0
 10
55.483166
 20
238.676507
 30
0.0
 10
55.342055
 20
238.888174
 30
0.0
 10
55.271500
 20
239.099841
 30
0.0
 10
55.271500
 20
239.346785
 30
0.0
 10
55.342055
 20
239.558452
 30
0.0
 10
55.483166
 20
239.734841
 30
0.0
  0
LWPOLYLINE
  5
10d
100
AcDbEntity
  8
Capa_1
 62
7
100
AcDbPolyline
 90
2
 70
0
 10
48.074833
 20
232.326507
 30
0.0
 10
49.133166
 20
233.384841
 30
0.0
  0
LWPOLYLINE
  5
10e
100
AcDbEntity
  8
Capa_1
 62
7
100
AcDbPolyline
 90
11
 70
0
 10
49.133166
 20
231.268174
 30
0.0
 10
48.921500
 20
231.127063
 30
0.0
 10
48.709833
 20
231.056507
 30
0.0
 10
48.462888
 20
231.056507
 30
0.0
 10
48.251222
 20
231.127063
 30
0.0
 10
48.074833
 20
231.268174
 30
0.0
 10
47.933722
 20
231.444563
 30
0.0
 10
47.863166
 20
231.656230
 30
0.0
 10
47.863166
 20
231.903174
 30
0.0
 10
47.933722
 20
232.114841
 30
0.0
 10
48.074833
 20
232.326507
 30
0.0
  0
LWPOLYLINE
  5
10f
100
AcDbEntity
  8
Capa_1
 62
7
100
AcDbPolyline
 90
2
 70
0
 10
50.191500
 20
232.326507
 30
0.0
 10
49.133166
 20
231.268174
 30
0.0
  0
LWPOLYLINE
  5
110
100
AcDbEntity
  8
Capa_1
 62
7
100
AcDbPolyline
 90
11
 70
0
 10
49.133166
 20
233.384841
 30
0.0
 10
49.309555
 20
233.525952
 30
0.0
 10
49.521222
 20
233.596507
 30
0.0
 10
49.768166
 20
233.596507
 30
0.0
 10
49.979833
 20
233.525952
 30
0.0
 10
50.191500
 20
233.384841
 30
0.0
 10
50.332611
 20
233.208452
 30
0.0
 10
50.403166
 20
232.961507
 30
0.0
 10
50.403166
 20
232.749841
 30
0.0
 10
50.332611
 20
232.502896
 30
0.0
 10
50.191500
 20
232.326507
 30
0.0
  0
LWPOLYLINE
  5
111
100
AcDbEntity
  8
Capa_1
 62
7
100
AcDbPolyline
 90
37
 70
0
 10
50.579555
 20
236.030674
 30
0.0
 10
50.614833
 20
236.418730
 30
0.0
 10
50.720666
 20
236.806785
 30
0.0
 10
50.897055
 20
237.159563
 30
0.0
 10
51.108722
 20
237.477063
 30
0.0
 10
51.390944
 20
237.759285
 30
0.0
 10
51.708444
 20
237.970952
 30
0.0
 10
52.061222
 20
238.147341
 30
0.0
 10
52.449277
 20
238.253174
 30
0.0
 10
52.837333
 20
238.288452
 30
0.0
 10
53.225388
 20
238.253174
 30
0.0
 10
53.613444
 20
238.147341
 30
0.0
 10
53.966222
 20
237.970952
 30
0.0
 10
54.283722
 20
237.759285
 30
0.0
 10
54.565944
 20
237.477063
 30
0.0
 10
54.777611
 20
237.159563
 30
0.0
 10
54.954000
 20
236.806785
 30
0.0
 10
55.059833
 20
236.418730
 30
0.0
 10
55.095111
 20
236.030674
 30
0.0
 10
55.059833
 20
235.642619
 30
0.0
 10
54.954000
 20
235.254563
 30
0.0
 10
54.777611
 20
234.901785
 30
0.0
 10
54.565944
 20
234.584285
 30
0.0
 10
54.283722
 20
234.302063
 30
0.0
 10
53.966222
 20
234.090396
 30
0.0
 10
53.613444
 20
233.914007
 30
0.0
 10
53.225388
 20
233.808174
 30
0.0
 10
52.837333
 20
233.772896
 30
0.0
 10
52.449277
 20
233.808174
 30
0.0
 10
52.061222
 20
233.914007
 30
0.0
 10
51.708444
 20
234.090396
 30
0.0
 10
51.390944
 20
234.302063
 30
0.0
 10
51.108722
 20
234.584285
 30
0.0
 10
50.897055
 20
234.901785
 30
0.0
 10
50.720666
 20
235.254563
 30
0.0
 10
50.614833
 20
235.642619
 30
0.0
 10
50.579555
 20
236.030674
 30
0.0
  0
LWPOLYLINE
  5
112
100
AcDbEntity
  8
Capa_1
 62
7
100
AcDbPolyline
 90
125
 70
0
 10
142.195944
 20
242.945118
 30
0.0
 10
142.195944
 20
228.939841
 30
0.0
 10
142.160666
 20
228.551785
 30
0.0
 10
142.054833
 20
228.163730
 30
0.0
 10
141.878444
 20
227.810952
 30
0.0
 10
141.596222
 20
227.528730
 30
0.0
 10
141.314000
 20
227.281785
 30
0.0
 10
140.961222
 20
227.105396
 30
0.0
 10
140.573166
 20
226.964285
 30
0.0
 10
140.185111
 20
226.929007
 30
0.0
 10
131.542055
 20
226.929007
 30
0.0
 10
131.471500
 20
226.929007
 30
0.0
 10
131.400944
 20
226.929007
 30
0.0
 10
131.330388
 20
226.929007
 30
0.0
 10
131.259833
 20
226.964285
 30
0.0
 10
131.189277
 20
226.964285
 30
0.0
 10
131.118722
 20
226.964285
 30
0.0
 10
131.048166
 20
226.999563
 30
0.0
 10
130.977611
 20
226.999563
 30
0.0
 10
127.979000
 20
227.669841
 30
0.0
 10
124.945111
 20
228.234285
 30
0.0
 10
121.946500
 20
228.728174
 30
0.0
 10
118.912611
 20
229.151507
 30
0.0
 10
115.843444
 20
229.539563
 30
0.0
 10
112.809555
 20
229.821785
 30
0.0
 10
109.740388
 20
229.998174
 30
0.0
 10
106.671222
 20
230.139285
 30
0.0
 10
103.602055
 20
230.209841
 30
0.0
 10
100.532888
 20
230.174563
 30
0.0
 10
97.499000
 20
230.104007
 30
0.0
 10
94.429833
 20
229.927618
 30
0.0
 10
91.360666
 20
229.680674
 30
0.0
 10
88.326777
 20
229.363174
 30
0.0
 10
85.292888
 20
228.975118
 30
0.0
 10
82.259000
 20
228.481230
 30
0.0
 10
79.225111
 20
227.952063
 30
0.0
 10
76.226500
 20
227.352341
 30
0.0
 10
76.155944
 20
227.317063
 30
0.0
 10
76.085388
 20
227.317063
 30
0.0
 10
76.014833
 20
227.317063
 30
0.0
 10
75.944277
 20
227.281785
 30
0.0
 10
75.909000
 20
227.281785
 30
0.0
 10
75.838444
 20
227.281785
 30
0.0
 10
75.767888
 20
227.281785
 30
0.0
 10
75.697333
 20
227.281785
 30
0.0
 10
52.837333
 20
227.281785
 30
0.0
 10
52.061222
 20
227.317063
 30
0.0
 10
51.285111
 20
227.422896
 30
0.0
 10
50.509000
 20
227.599285
 30
0.0
 10
49.768166
 20
227.846230
 30
0.0
 10
49.027333
 20
228.163730
 30
0.0
 10
48.357055
 20
228.516507
 30
0.0
 10
47.686777
 20
228.939841
 30
0.0
 10
47.087055
 20
229.433730
 30
0.0
 10
46.522611
 20
229.998174
 30
0.0
 10
45.993444
 20
230.562618
 30
0.0
 10
45.534833
 20
231.197618
 30
0.0
 10
45.111500
 20
231.903174
 30
0.0
 10
44.794000
 20
232.608730
 30
0.0
 10
44.511777
 20
233.314285
 30
0.0
 10
44.300111
 20
234.090396
 30
0.0
 10
44.159000
 20
234.866507
 30
0.0
 10
44.088444
 20
235.642619
 30
0.0
 10
44.088444
 20
236.418730
 30
0.0
 10
44.159000
 20
237.194841
 30
0.0
 10
44.300111
 20
237.970952
 30
0.0
 10
44.511777
 20
238.747063
 30
0.0
 10
44.794000
 20
239.487896
 30
0.0
 10
45.111500
 20
240.193452
 30
0.0
 10
45.534833
 20
240.863730
 30
0.0
 10
45.993444
 20
241.498730
 30
0.0
 10
46.522611
 20
242.063174
 30
0.0
 10
47.087055
 20
242.627618
 30
0.0
 10
47.686777
 20
243.121507
 30
0.0
 10
48.357055
 20
243.544841
 30
0.0
 10
49.027333
 20
243.932896
 30
0.0
 10
49.768166
 20
244.215118
 30
0.0
 10
50.509000
 20
244.462063
 30
0.0
 10
51.285111
 20
244.638452
 30
0.0
 10
52.061222
 20
244.744285
 30
0.0
 10
52.837333
 20
244.779563
 30
0.0
 10
75.485666
 20
244.779563
 30
0.0
 10
75.556222
 20
244.779563
 30
0.0
 10
75.626777
 20
244.779563
 30
0.0
 10
75.697333
 20
244.779563
 30
0.0
 10
75.767888
 20
244.779563
 30
0.0
 10
75.838444
 20
244.744285
 30
0.0
 10
75.909000
 20
244.744285
 30
0.0
 10
75.979555
 20
244.744285
 30
0.0
 10
76.014833
 20
244.709007
 30
0.0
 10
79.048722
 20
244.109285
 30
0.0
 10
82.082611
 20
243.544841
 30
0.0
 10
85.116500
 20
243.050952
 30
0.0
 10
88.150388
 20
242.662896
 30
0.0
 10
91.219555
 20
242.310118
 30
0.0
 10
94.288722
 20
242.063174
 30
0.0
 10
97.357888
 20
241.886785
 30
0.0
 10
100.427055
 20
241.780952
 30
0.0
 10
103.496222
 20
241.745674
 30
0.0
 10
106.565388
 20
241.816230
 30
0.0
 10
109.669833
 20
241.922063
 30
0.0
 10
112.739000
 20
242.133730
 30
0.0
 10
115.772888
 20
242.415952
 30
0.0
 10
118.842055
 20
242.768730
 30
0.0
 10
121.911222
 20
243.192063
 30
0.0
 10
124.945111
 20
243.685952
 30
0.0
 10
127.943722
 20
244.250396
 30
0.0
 10
130.977611
 20
244.885396
 30
0.0
 10
131.012888
 20
244.920674
 30
0.0
 10
131.083444
 20
244.920674
 30
0.0
 10
131.154000
 20
244.920674
 30
0.0
 10
131.224555
 20
244.955952
 30
0.0
 10
131.295111
 20
244.955952
 30
0.0
 10
131.365666
 20
244.955952
 30
0.0
 10
131.436222
 20
244.955952
 30
0.0
 10
131.506777
 20
244.955952
 30
0.0
 10
140.185111
 20
244.955952
 30
0.0
 10
140.573166
 20
244.920674
 30
0.0
 10
140.961222
 20
244.814841
 30
0.0
 10
141.314000
 20
244.638452
 30
0.0
 10
141.596222
 20
244.391507
 30
0.0
 10
141.878444
 20
244.074007
 30
0.0
 10
142.054833
 20
243.721230
 30
0.0
 10
142.160666
 20
243.333174
 30
0.0
 10
142.195944
 20
242.945118
 30
0.0
  0
LWPOLYLINE
  5
113
100
AcDbEntity
  8
Capa_1
 62
7
100
AcDbPolyline
 90
25
 70
0
 10
137.186500
 20
241.004841
 30
0.0
 10
137.221777
 20
241.287063
 30
0.0
 10
137.292333
 20
241.498730
 30
0.0
 10
137.468722
 20
241.710396
 30
0.0
 10
137.680388
 20
241.886785
 30
0.0
 10
137.927333
 20
241.992618
 30
0.0
 10
138.174277
 20
242.027896
 30
0.0
 10
138.421222
 20
241.992618
 30
0.0
 10
138.668166
 20
241.886785
 30
0.0
 10
138.879833
 20
241.710396
 30
0.0
 10
139.056222
 20
241.498730
 30
0.0
 10
139.126777
 20
241.287063
 30
0.0
 10
139.162055
 20
241.004841
 30
0.0
 10
139.126777
 20
240.757896
 30
0.0
 10
139.056222
 20
240.510952
 30
0.0
 10
138.879833
 20
240.299285
 30
0.0
 10
138.668166
 20
240.158174
 30
0.0
 10
138.421222
 20
240.052341
 30
0.0
 10
138.174277
 20
240.017063
 30
0.0
 10
137.927333
 20
240.052341
 30
0.0
 10
137.680388
 20
240.158174
 30
0.0
 10
137.468722
 20
240.299285
 30
0.0
 10
137.292333
 20
240.510952
 30
0.0
 10
137.221777
 20
240.757896
 30
0.0
 10
137.186500
 20
241.004841
 30
0.0
  0
LWPOLYLINE
  5
114
100
AcDbEntity
  8
Capa_1
 62
7
100
AcDbPolyline
 90
2
 70
0
 10
56.541500
 20
231.268174
 30
0.0
 10
55.483166
 20
232.326507
 30
0.0
  0
LWPOLYLINE
  5
115
100
AcDbEntity
  8
Capa_1
 62
7
100
AcDbPolyline
 90
11
 70
0
 10
57.599833
 20
232.326507
 30
0.0
 10
57.740944
 20
232.114841
 30
0.0
 10
57.811500
 20
231.903174
 30
0.0
 10
57.811500
 20
231.656230
 30
0.0
 10
57.740944
 20
231.444563
 30
0.0
 10
57.599833
 20
231.268174
 30
0.0
 10
57.423444
 20
231.127063
 30
0.0
 10
57.176500
 20
231.056507
 30
0.0
 10
56.964833
 20
231.056507
 30
0.0
 10
56.717888
 20
231.127063
 30
0.0
 10
56.541500
 20
231.268174
 30
0.0
  0
LWPOLYLINE
  5
116
100
AcDbEntity
  8
Capa_1
 62
7
100
AcDbPolyline
 90
2
 70
0
 10
56.541500
 20
233.384841
 30
0.0
 10
57.599833
 20
232.326507
 30
0.0
  0
LWPOLYLINE
  5
117
100
AcDbEntity
  8
Capa_1
 62
7
100
AcDbPolyline
 90
11
 70
0
 10
55.483166
 20
232.326507
 30
0.0
 10
55.342055
 20
232.502896
 30
0.0
 10
55.271500
 20
232.749841
 30
0.0
 10
55.271500
 20
232.961507
 30
0.0
 10
55.342055
 20
233.208452
 30
0.0
 10
55.483166
 20
233.384841
 30
0.0
 10
55.659555
 20
233.525952
 30
0.0
 10
55.906500
 20
233.596507
 30
0.0
 10
56.118166
 20
233.596507
 30
0.0
 10
56.365111
 20
233.525952
 30
0.0
 10
56.541500
 20
233.384841
 30
0.0
  0
LWPOLYLINE
  5
118
100
AcDbEntity
  8
Capa_1
 62
7
100
AcDbPolyline
 90
2
 70
0
 10
49.133166
 20
240.793174
 30
0.0
 10
50.191500
 20
239.734841
 30
0.0
  0
LWPOLYLINE
  5
119
100
AcDbEntity
  8
Capa_1
 62
7
100
AcDbPolyline
 90
11
 70
0
 10
48.074833
 20
239.734841
 30
0.0
 10
47.933722
 20
239.946507
 30
0.0
 10
47.863166
 20
240.158174
 30
0.0
 10
47.863166
 20
240.405119
 30
0.0
 10
47.933722
 20
240.616785
 30
0.0
 10
48.074833
 20
240.793174
 30
0.0
 10
48.251222
 20
240.934285
 30
0.0
 10
48.462888
 20
241.004841
 30
0.0
 10
48.709833
 20
241.004841
 30
0.0
 10
48.921500
 20
240.934285
 30
0.0
 10
49.133166
 20
240.793174
 30
0.0
  0
LWPOLYLINE
  5
11a
100
AcDbEntity
  8
Capa_1
 62
7
100
AcDbPolyline
 90
2
 70
0
 10
49.133166
 20
238.676507
 30
0.0
 10
48.074833
 20
239.734841
 30
0.0
  0
LWPOLYLINE
  5
11b
100
AcDbEntity
  8
Capa_1
 62
7
100
AcDbPolyline
 90
25
 70
0
 10
137.151222
 20
230.880118
 30
0.0
 10
137.186500
 20
231.127063
 30
0.0
 10
137.292333
 20
231.374007
 30
0.0
 10
137.433444
 20
231.585674
 30
0.0
 10
137.645111
 20
231.762063
 30
0.0
 10
137.892055
 20
231.832618
 30
0.0
 10
138.174277
 20
231.867896
 30
0.0
 10
138.421222
 20
231.832618
 30
0.0
 10
138.668166
 20
231.762063
 30
0.0
 10
138.879833
 20
231.585674
 30
0.0
 10
139.020944
 20
231.374007
 30
0.0
 10
139.126777
 20
231.127063
 30
0.0
 10
139.162055
 20
230.880118
 30
0.0
 10
139.126777
 20
230.633174
 30
0.0
 10
139.020944
 20
230.386230
 30
0.0
 10
138.879833
 20
230.174563
 30
0.0
 10
138.668166
 20
230.033452
 30
0.0
 10
138.421222
 20
229.927618
 30
0.0
 10
138.174277
 20
229.892341
 30
0.0
 10
137.892055
 20
229.927618
 30
0.0
 10
137.645111
 20
230.033452
 30
0.0
 10
137.433444
 20
230.174563
 30
0.0
 10
137.292333
 20
230.386230
 30
0.0
 10
137.186500
 20
230.633174
 30
0.0
 10
137.151222
 20
230.880118
 30
0.0
  0
LWPOLYLINE
  5
11c
100
AcDbEntity
  8
Capa_1
 62
7
100
AcDbPolyline
 90
43
 70
0
 10
121.029277
 20
235.960119
 30
0.0
 10
121.064555
 20
236.418730
 30
0.0
 10
121.170388
 20
236.877341
 30
0.0
 10
121.346777
 20
237.300674
 30
0.0
 10
121.593722
 20
237.688730
 30
0.0
 10
121.875944
 20
238.076785
 30
0.0
 10
122.193444
 20
238.394285
 30
0.0
 10
122.581500
 20
238.641230
 30
0.0
 10
123.004833
 20
238.852896
 30
0.0
 10
123.463444
 20
238.994007
 30
0.0
 10
123.922055
 20
239.064563
 30
0.0
 10
124.380666
 20
239.064563
 30
0.0
 10
124.839277
 20
238.994007
 30
0.0
 10
125.262611
 20
238.852896
 30
0.0
 10
125.685944
 20
238.641230
 30
0.0
 10
126.074000
 20
238.394285
 30
0.0
 10
126.426777
 20
238.076785
 30
0.0
 10
126.709000
 20
237.688730
 30
0.0
 10
126.920666
 20
237.300674
 30
0.0
 10
127.097055
 20
236.877341
 30
0.0
 10
127.202888
 20
236.418730
 30
0.0
 10
127.238166
 20
235.960119
 30
0.0
 10
127.202888
 20
235.501507
 30
0.0
 10
127.097055
 20
235.042896
 30
0.0
 10
126.920666
 20
234.619563
 30
0.0
 10
126.709000
 20
234.196230
 30
0.0
 10
126.426777
 20
233.843452
 30
0.0
 10
126.074000
 20
233.525952
 30
0.0
 10
125.685944
 20
233.279007
 30
0.0
 10
125.262611
 20
233.067341
 30
0.0
 10
124.839277
 20
232.926230
 30
0.0
 10
124.380666
 20
232.855674
 30
0.0
 10
123.922055
 20
232.855674
 30
0.0
 10
123.463444
 20
232.926230
 30
0.0
 10
123.004833
 20
233.067341
 30
0.0
 10
122.581500
 20
233.279007
 30
0.0
 10
122.193444
 20
233.525952
 30
0.0
 10
121.875944
 20
233.843452
 30
0.0
 10
121.593722
 20
234.196230
 30
0.0
 10
121.346777
 20
234.619563
 30
0.0
 10
121.170388
 20
235.042896
 30
0.0
 10
121.064555
 20
235.501507
 30
0.0
 10
121.029277
 20
235.960119
 30
0.0
  0
LWPOLYLINE
  5
11d
100
AcDbEntity
  8
Capa_1
 62
7
100
AcDbPolyline
 90
21
 70
0
 10
63.455944
 20
236.030674
 30
0.0
 10
63.491222
 20
236.277619
 30
0.0
 10
63.597055
 20
236.489285
 30
0.0
 10
63.738166
 20
236.630396
 30
0.0
 10
63.949833
 20
236.736230
 30
0.0
 10
64.196777
 20
236.771507
 30
0.0
 10
64.408444
 20
236.736230
 30
0.0
 10
64.620111
 20
236.630396
 30
0.0
 10
64.796500
 20
236.489285
 30
0.0
 10
64.902333
 20
236.277619
 30
0.0
 10
64.937611
 20
236.030674
 30
0.0
 10
64.902333
 20
235.819007
 30
0.0
 10
64.796500
 20
235.607341
 30
0.0
 10
64.620111
 20
235.430952
 30
0.0
 10
64.408444
 20
235.325119
 30
0.0
 10
64.196777
 20
235.289841
 30
0.0
 10
63.949833
 20
235.325119
 30
0.0
 10
63.738166
 20
235.430952
 30
0.0
 10
63.597055
 20
235.607341
 30
0.0
 10
63.491222
 20
235.819007
 30
0.0
 10
63.455944
 20
236.030674
 30
0.0
  0
LWPOLYLINE
  5
11e
100
AcDbEntity
  8
Capa_1
 62
7
100
AcDbPolyline
 90
25
 70
0
 10
68.853444
 20
236.030674
 30
0.0
 10
68.888722
 20
236.277619
 30
0.0
 10
68.994555
 20
236.524563
 30
0.0
 10
69.170944
 20
236.736230
 30
0.0
 10
69.382611
 20
236.912619
 30
0.0
 10
69.594277
 20
236.983174
 30
0.0
 10
69.876500
 20
237.018452
 30
0.0
 10
70.123444
 20
236.983174
 30
0.0
 10
70.370388
 20
236.912619
 30
0.0
 10
70.582055
 20
236.736230
 30
0.0
 10
70.723166
 20
236.524563
 30
0.0
 10
70.829000
 20
236.277619
 30
0.0
 10
70.864277
 20
236.030674
 30
0.0
 10
70.829000
 20
235.783730
 30
0.0
 10
70.723166
 20
235.536785
 30
0.0
 10
70.582055
 20
235.325119
 30
0.0
 10
70.370388
 20
235.184007
 30
0.0
 10
70.123444
 20
235.078174
 30
0.0
 10
69.876500
 20
235.042896
 30
0.0
 10
69.594277
 20
235.078174
 30
0.0
 10
69.382611
 20
235.184007
 30
0.0
 10
69.170944
 20
235.325119
 30
0.0
 10
68.994555
 20
235.536785
 30
0.0
 10
68.888722
 20
235.783730
 30
0.0
 10
68.853444
 20
236.030674
 30
0.0
  0
LWPOLYLINE
  5
11f
100
AcDbEntity
  8
Capa_1
 62
7
100
AcDbPolyline
 90
43
 70
0
 10
95.594000
 20
235.960119
 30
0.0
 10
95.629277
 20
236.418730
 30
0.0
 10
95.735111
 20
236.877341
 30
0.0
 10
95.911500
 20
237.300674
 30
0.0
 10
96.123166
 20
237.688730
 30
0.0
 10
96.440666
 20
238.076785
 30
0.0
 10
96.758166
 20
238.394285
 30
0.0
 10
97.146222
 20
238.641230
 30
0.0
 10
97.569555
 20
238.852896
 30
0.0
 10
98.028166
 20
238.994007
 30
0.0
 10
98.486777
 20
239.064563
 30
0.0
 10
98.945388
 20
239.064563
 30
0.0
 10
99.404000
 20
238.994007
 30
0.0
 10
99.827333
 20
238.852896
 30
0.0
 10
100.250666
 20
238.641230
 30
0.0
 10
100.638722
 20
238.394285
 30
0.0
 10
100.956222
 20
238.076785
 30
0.0
 10
101.273722
 20
237.688730
 30
0.0
 10
101.485388
 20
237.300674
 30
0.0
 10
101.661777
 20
236.877341
 30
0.0
 10
101.767611
 20
236.418730
 30
0.0
 10
101.802888
 20
235.960119
 30
0.0
 10
101.767611
 20
235.501507
 30
0.0
 10
101.661777
 20
235.042896
 30
0.0
 10
101.485388
 20
234.619563
 30
0.0
 10
101.273722
 20
234.196230
 30
0.0
 10
100.956222
 20
233.843452
 30
0.0
 10
100.638722
 20
233.525952
 30
0.0
 10
100.250666
 20
233.279007
 30
0.0
 10
99.827333
 20
233.067341
 30
0.0
 10
99.404000
 20
232.926230
 30
0.0
 10
98.945388
 20
232.855674
 30
0.0
 10
98.486777
 20
232.855674
 30
0.0
 10
98.028166
 20
232.926230
 30
0.0
 10
97.569555
 20
233.067341
 30
0.0
 10
97.146222
 20
233.279007
 30
0.0
 10
96.758166
 20
233.525952
 30
0.0
 10
96.440666
 20
233.843452
 30
0.0
 10
96.123166
 20
234.196230
 30
0.0
 10
95.911500
 20
234.619563
 30
0.0
 10
95.735111
 20
235.042896
 30
0.0
 10
95.629277
 20
235.501507
 30
0.0
 10
95.594000
 20
235.960119
 30
0.0
  0
LWPOLYLINE
  5
120
100
AcDbEntity
  8
Capa_1
 62
7
100
AcDbPolyline
 90
2
 70
0
 10
61.480388
 20
242.133730
 30
0.0
 10
72.592888
 20
242.133730
 30
0.0
  0
LWPOLYLINE
  5
121
100
AcDbEntity
  8
Capa_1
 62
7
100
AcDbPolyline
 90
14
 70
0
 10
61.480388
 20
239.664285
 30
0.0
 10
61.162888
 20
239.699563
 30
0.0
 10
60.880666
 20
239.805396
 30
0.0
 10
60.633722
 20
239.981785
 30
0.0
 10
60.457333
 20
240.193452
 30
0.0
 10
60.316222
 20
240.440396
 30
0.0
 10
60.245666
 20
240.757896
 30
0.0
 10
60.245666
 20
241.040118
 30
0.0
 10
60.316222
 20
241.357618
 30
0.0
 10
60.457333
 20
241.604563
 30
0.0
 10
60.633722
 20
241.851507
 30
0.0
 10
60.880666
 20
241.992618
 30
0.0
 10
61.162888
 20
242.098452
 30
0.0
 10
61.480388
 20
242.133730
 30
0.0
  0
LWPOLYLINE
  5
122
100
AcDbEntity
  8
Capa_1
 62
7
100
AcDbPolyline
 90
2
 70
0
 10
72.592888
 20
239.664285
 30
0.0
 10
61.480388
 20
239.664285
 30
0.0
  0
LWPOLYLINE
  5
123
100
AcDbEntity
  8
Capa_1
 62
7
100
AcDbPolyline
 90
14
 70
0
 10
72.592888
 20
242.133730
 30
0.0
 10
72.910388
 20
242.098452
 30
0.0
 10
73.192611
 20
241.992618
 30
0.0
 10
73.439555
 20
241.851507
 30
0.0
 10
73.615944
 20
241.604563
 30
0.0
 10
73.757055
 20
241.357618
 30
0.0
 10
73.827611
 20
241.040118
 30
0.0
 10
73.827611
 20
240.757896
 30
0.0
 10
73.757055
 20
240.440396
 30
0.0
 10
73.615944
 20
240.193452
 30
0.0
 10
73.439555
 20
239.981785
 30
0.0
 10
73.192611
 20
239.805396
 30
0.0
 10
72.910388
 20
239.699563
 30
0.0
 10
72.592888
 20
239.664285
 30
0.0
  0
LWPOLYLINE
  5
124
100
AcDbEntity
  8
Capa_1
 62
7
100
AcDbPolyline
 90
11
 70
0
 10
50.191500
 20
239.734841
 30
0.0
 10
50.332611
 20
239.558452
 30
0.0
 10
50.403166
 20
239.346785
 30
0.0
 10
50.403166
 20
239.099841
 30
0.0
 10
50.332611
 20
238.888174
 30
0.0
 10
50.191500
 20
238.676507
 30
0.0
 10
49.979833
 20
238.535396
 30
0.0
 10
49.768166
 20
238.464841
 30
0.0
 10
49.521222
 20
238.464841
 30
0.0
 10
49.309555
 20
238.535396
 30
0.0
 10
49.133166
 20
238.676507
 30
0.0
  0
ENDSEC
  0
SECTION
  2
OBJECTS
  0
DICTIONARY
  5
C
330
0
100
AcDbDictionary
  3
ACAD_GROUP
350
D
  3
ACAD_MLINESTYLE
350
17
  0
DICTIONARY
  5
D
330
C
100
AcDbDictionary
  0
DICTIONARY
  5
1A
330
C
100
AcDbDictionary
  0
DICTIONARY
  5
17
330
C
100
AcDbDictionary
  3
STANDARD
350
18
  0
DICTIONARY
  5
19
330
C
100
AcDbDictionary
  0
ENDSEC
  0
EOF
